HIERARCHY
ROOT Hips
{
	OFFSET 0.0000 0.0000 0.0000
	CHANNELS 6 Xposition Yposition Zposition Zrotation Xrotation Yrotation
	JOINT Ab
	{
		OFFSET -0.0000 8.1305 -0.0000
		CHANNELS 3 Zrotation Xrotation Yrotation
		JOINT Chest
		{
			OFFSET -0.0000 26.2902 -0.0000
			CHANNELS 3 Zrotation Xrotation Yrotation
			JOINT Neck
			{
				OFFSET -0.0000 26.2902 0.0000
				CHANNELS 3 Zrotation Xrotation Yrotation
				JOINT Head
				{
					OFFSET -0.0000 10.8167 0.0000
					CHANNELS 3 Zrotation Xrotation Yrotation
					End Site
					{
						OFFSET -0.0000 16.7167 0.0000
					}
				}
			}
			JOINT LeftCollar
			{
				OFFSET -0.0000 26.2902 0.0000
				CHANNELS 3 Zrotation Xrotation Yrotation
				JOINT LeftShoulder
				{
					OFFSET 19.6667 -0.0000 0.0000
					CHANNELS 3 Zrotation Xrotation Yrotation
					JOINT LeftElbow
					{
						OFFSET 27.2190 0.0000 0.0000
						CHANNELS 3 Zrotation Xrotation Yrotation
						JOINT LeftWrist
						{
							OFFSET 30.7431 0.0000 0.0000
							CHANNELS 3 Zrotation Xrotation Yrotation
							End Site
							{
								OFFSET 0.0000 -14.7500 0.0000
							}
						}
					}
				}
			}
			JOINT RightCollar
			{
				OFFSET -0.0000 26.2902 0.0000
				CHANNELS 3 Zrotation Xrotation Yrotation
				JOINT RightShoulder
				{
					OFFSET -19.6667 0.0000 0.0000
					CHANNELS 3 Zrotation Xrotation Yrotation
					JOINT RightElbow
					{
						OFFSET -27.2190 0.0000 0.0000
						CHANNELS 3 Zrotation Xrotation Yrotation
						JOINT RightWrist
						{
							OFFSET -30.7431 0.0000 0.0000
							CHANNELS 3 Zrotation Xrotation Yrotation
							End Site
							{
								OFFSET -0.0000 -14.7500 0.0000
							}
						}
					}
				}
			}
		}
	}
	JOINT LeftHip
	{
		OFFSET 11.8000 0.0000 0.0000
		CHANNELS 3 Zrotation Xrotation Yrotation
		JOINT LeftKnee
		{
			OFFSET -0.0000 -39.7832 0.0000
			CHANNELS 3 Zrotation Xrotation Yrotation
			JOINT LeftAnkle
			{
				OFFSET -0.0000 -41.7317 0.0000
				CHANNELS 3 Zrotation Xrotation Yrotation
				End Site
				{
					OFFSET -0.0000 -4.9167 16.7167
				}
			}
		}
	}
	JOINT RightHip
	{
		OFFSET -11.8000 0.0000 0.0000
		CHANNELS 3 Zrotation Xrotation Yrotation
		JOINT RightKnee
		{
			OFFSET -0.0000 -39.7832 0.0000
			CHANNELS 3 Zrotation Xrotation Yrotation
			JOINT RightAnkle
			{
				OFFSET -0.0000 -41.7317 0.0000
				CHANNELS 3 Zrotation Xrotation Yrotation
				End Site
				{
					OFFSET -0.0000 -4.9167 16.7167
				}
			}
		}
	}
}
MOTION
Frames: 9
Frame Time: 0.010000
-7.8169 92.9708 104.1955 356.7857 347.0573 198.8797 2.5834 349.5018 0.2582 4.1847 10.3493 359.6523 348.2593 346.6436 352.4090 5.4293 6.4955 353.4715 339.8698 357.5061 13.9334 320.3077 59.0969 338.6054 14.2591 354.4015 317.4522 90.8351 356.2293 351.2900 26.8396 356.0906 343.7178 40.0606 45.3624 9.2428 335.8439 352.1183 35.6271 270.3516 355.8216 3.3246 358.6936 359.9495 359.4816 357.8432 18.9631 3.1200 345.9990 352.5813 11.0242 350.7437 344.5129 5.3515 11.0832 14.4984 11.4339 349.4282 346.4928 314.1339 
-7.7583 93.0052 103.9247 356.6766 347.1249 198.8137 2.5421 349.5427 0.3168 4.2283 10.4278 359.6590 348.2318 346.7283 352.3762 5.5440 6.5741 353.4239 339.8509 357.5041 14.0031 320.5540 59.2021 338.2686 14.4014 354.3283 317.4363 90.3372 356.1742 351.0893 26.8390 356.1074 343.7429 40.0049 45.3887 9.2652 335.8501 352.1449 35.5451 270.3425 355.8072 3.3147 358.6563 359.7225 359.2979 357.6508 19.1309 3.2220 345.6401 351.8152 11.3871 350.7759 344.9223 5.5606 11.0699 14.2098 11.3008 349.4480 346.3910 314.1443 
-7.6676 93.0349 103.7147 356.6521 347.0625 198.7861 2.5209 349.5135 0.3197 4.2387 10.4218 359.7129 348.2981 346.8909 352.3224 5.5890 6.5703 353.3406 339.8540 357.5201 13.9466 320.6458 59.2046 338.1512 14.4896 354.2827 317.2690 90.4706 356.4702 351.2144 26.8608 356.0973 343.7597 40.0639 45.3291 9.1574 335.8008 352.1502 35.4876 270.3132 355.8482 3.1517 358.5677 359.0850 359.2555 357.6013 19.6433 3.2902 345.5113 351.1699 11.6053 350.8380 345.0852 5.5855 11.0072 14.0600 11.2494 349.4806 346.2588 314.1976 
-7.5769 93.0663 103.5147 356.6329 346.9928 198.7639 2.4961 349.4887 0.3534 4.2649 10.4013 359.7382 348.2828 346.9971 352.3005 5.6964 6.6154 353.3046 339.8229 357.4938 13.9725 320.7711 59.1816 338.0346 14.5706 354.2400 317.1797 90.2968 356.4461 351.1494 26.8467 356.1095 343.8387 40.1690 45.2957 9.0095 335.8078 352.1566 35.4411 270.2931 355.9206 3.0806 358.4780 358.5561 359.2947 357.5524 19.8526 3.2458 345.2995 350.6886 11.9789 350.9079 345.2258 5.5173 10.8991 13.9326 11.1083 349.5805 346.1051 314.4203 
-7.5044 93.0992 103.2954 356.5734 346.9800 198.7050 2.4591 349.4927 0.4063 4.2934 10.4021 359.7606 348.2813 347.0897 352.2831 5.7351 6.7224 353.2703 339.8641 357.4988 14.0438 320.8285 59.3161 337.8169 14.7116 354.1801 317.2683 89.9748 356.1392 351.2113 26.8134 356.1111 343.8500 40.2123 45.3951 8.9804 335.7687 352.1568 35.2977 270.3111 355.9128 3.0454 358.3636 358.2090 359.3606 357.5899 19.8440 3.0941 345.5405 350.2000 12.2212 350.9613 345.4693 5.5156 10.8008 13.7330 10.7710 349.7024 345.9682 314.8111 
-7.4400 93.1329 103.0700 356.5084 346.9929 198.6470 2.4380 349.4952 0.4313 4.2807 10.4239 359.8020 348.2403 347.2366 352.2516 5.9478 6.7653 353.2130 339.8859 357.4924 14.0589 320.8690 59.3603 337.7155 14.8005 354.1535 317.2746 89.8067 355.9916 351.3035 26.8107 356.1273 343.8206 40.2158 45.4746 8.9839 335.7816 352.1910 35.1609 270.2743 355.9241 3.1240 358.2292 357.8844 359.4673 357.6120 19.8002 3.0682 345.8952 349.8437 12.2248 351.0063 345.7548 5.4861 10.6871 13.5122 10.5288 349.8075 345.8594 315.1477 
-7.3855 93.1604 102.8597 356.4606 347.0357 198.6339 2.4452 349.5421 0.4395 4.2700 10.4094 359.8376 348.2399 347.3371 352.2301 6.0581 6.8831 353.1682 339.8666 357.4907 14.0544 320.9000 59.3419 337.7218 14.8053 354.1806 317.1790 89.9251 356.0131 351.4230 26.7883 356.1422 343.7946 40.2397 45.5391 8.9718 335.7672 352.2262 35.0073 270.2904 355.9415 3.1518 358.1044 357.5619 359.5364 357.5378 19.6034 3.2578 346.2711 349.6702 12.2486 351.0187 346.1240 5.7559 10.6782 13.0955 10.0461 349.8943 345.8394 315.3934 
-7.3388 93.1893 102.6503 356.4122 347.0952 198.6346 2.4530 349.5975 0.4727 4.2630 10.4020 359.8549 348.2040 347.4429 352.2052 6.1150 6.9897 353.1274 339.8537 357.4906 14.0768 320.9005 59.3332 337.7321 14.8222 354.1819 317.1068 90.0401 356.0237 351.5296 26.7427 356.1369 343.8093 40.3273 45.5439 8.8934 335.7550 352.2685 34.8791 270.3291 355.9609 3.0695 357.9744 357.4434 359.7547 357.4686 19.0001 3.3648 346.7287 349.7965 12.3461 351.0227 346.5085 6.0086 10.6913 12.7363 9.6855 349.9192 345.7728 315.5071 
-7.3021 93.2211 102.4110 356.3228 347.1760 198.5666 2.4251 349.6082 0.5300 4.2526 10.4853 359.8932 348.1618 347.5429 352.1884 6.1826 7.0858 353.0961 339.8753 357.4775 14.1340 320.9079 59.3737 337.6927 14.8636 354.1444 317.1076 89.9010 356.1265 351.3085 26.7157 356.1399 343.8468 40.4032 45.4997 8.7943 335.8520 352.3335 34.7980 270.3118 355.9909 3.0968 357.8084 357.3993 0.0102 357.4227 18.4297 3.3282 346.1220 349.7316 12.5409 351.0319 346.8913 6.1142 10.6404 12.4921 9.9073 349.9053 345.7748 315.3007 
